Coordinates
nRows=5
nColumns=24

# SIMM Motion File Header:
name Coordinates
datacolumns 24
datarows 5
otherdata 1
range 0.11833000000000000000 0.12233000000000001000

Units are S.I. units (second, meters, Newtons, ...)
Angles are in degrees.

endheader
time	pelvis_tx	pelvis_ty	pelvis_tz	pelvis_tilt	pelvis_list	pelvis_rotation	hip_flexion_r	hip_adduction_r	hip_rotation_r	knee_angle_r	ankle_angle_r	subtalar_angle_r	mtp_angle_r	hip_flexion_l	hip_adduction_l	hip_rotation_l	knee_angle_l	ankle_angle_l	subtalar_angle_l	mtp_angle_l	lumbar_extension	lumbar_bending	lumbar_rotation
      0.11833000000000000000	      1.24935234588516720000	      0.70549886243909887000	     -0.17411687607640350000	     -2.35651349508041270000	     -7.56607873901904160000	     -0.41576902841775215000	     31.60139282674598600000	     11.30576017882611400000	      3.89316276142609040000	    -31.60665810532004400000	      2.57627463645258010000	      0.00000000000000000000	      0.00000000000000000000	    -13.96938538218417500000	     -8.49296315230490430000	    -11.08260584283578400000	    -39.61397136576668000000	    -26.92849351482732300000	      0.00000000000000000000	      0.00000000000000000000	     -0.93052903099326101000	     10.56501920502868500000	      0.36197742736140925000
      0.11933000000000001000	      1.25067937621744510000	      0.70572581418242752000	     -0.17409978076074201000	     -2.37363050933697650000	     -7.58595219034561460000	     -0.39918139574987721000	     31.49989594924321400000	     11.34214302949605000000	      3.89447757560683080000	    -31.60738939400123100000	      2.67982500300547070000	     -0.00000000000000001886	     -0.00000000000000000491	    -13.67827233653769200000	     -8.55944869209414530000	    -11.11056767056393100000	    -40.04462322510834600000	    -27.00515291480104800000	     -0.00000000000000000046	     -0.00000000000000000031	     -0.92103312332333620000	     10.59701147676209300000	      0.34599220003992359000
      0.12033000000000001000	      1.25200243357651340000	      0.70595531228014174000	     -0.17408392828822808000	     -2.39082906454599840000	     -7.60528540567799280000	     -0.38285313578499902000	     31.39792369902164600000	     11.37791666220344100000	      3.89628954421523680000	    -31.60689113909659300000	      2.78237458086554270000	     -0.00000000000000005530	     -0.00000000000000000910	    -13.38670021872177800000	     -8.62498314306884950000	    -11.13912796036764900000	    -40.47413130952591600000	    -27.07821302937057300000	      0.00000000000000000131	     -0.00000000000000000079	     -0.91168570206587063000	     10.62852604542942600000	      0.33036088147923337000
      0.12133000000000001000	      1.25332150463025820000	      0.70618744079016826000	     -0.17406934957191664000	     -2.40809314530127020000	     -7.62404058059284930000	     -0.36679681706352868000	     31.29541107590947400000	     11.41304341985968800000	      3.89864218977953760000	    -31.60508625332942100000	      2.88431017577120890000	     -0.00000000000000015364	      0.00000000000000000696	    -13.09467495143021900000	     -8.68949824650976590000	    -11.16831857440799600000	    -40.90238967435152500000	    -27.14743631391044000000	      0.00000000000000000368	      0.00000000000000000198	     -0.90251892878320117000	     10.65952831884260600000	      0.31510810267813261000
      0.12233000000000001000	      1.25463654848360350000	      0.70642227483247377000	     -0.17405607654144320000	     -2.42542686007405670000	     -7.64217323612259230000	     -0.35103143628343042000	     31.19231571543815600000	     11.44747486715410500000	      3.90157222027006600000	    -31.60187732484978800000	      2.98558820869851570000	     -0.00000000000000025908	      0.00000000000000002526	    -12.80216672853729600000	     -8.75291674583089300000	    -11.19818041919889700000	    -41.32929694719054200000	    -27.21254264505745000000	      0.00000000000000000576	      0.00000000000000000223	     -0.89354822121617472000	     10.68997758543470900000	      0.30026462841645141000
